<svg width="55" height="21" viewBox="0 0 55 21" fill="none" xmlns="http://www.w3.org/2000/svg">
<path d="M38.1154 0.167999C40.9714 0.167999 42.9394 2.112 42.9394 4.8C42.9394 7.464 40.9714 9.408 38.1154 9.408C35.2834 9.408 33.3154 7.464 33.3154 4.8C33.3154 2.112 35.2834 0.167999 38.1154 0.167999ZM52.0594 0.527999L39.0994 20.088H35.8114L48.7714 0.527999H52.0594ZM38.1154 2.952C37.0354 2.952 36.2674 3.744 36.2674 4.8C36.2674 5.856 37.0354 6.648 38.1154 6.648C39.1954 6.648 39.9634 5.856 39.9634 4.8C39.9634 3.744 39.1954 2.952 38.1154 2.952ZM49.7314 11.184C52.5874 11.184 54.5554 13.128 54.5554 15.816C54.5554 18.48 52.5874 20.424 49.7314 20.424C46.8994 20.424 44.9314 18.48 44.9314 15.816C44.9314 13.128 46.8994 11.184 49.7314 11.184ZM49.7314 13.968C48.6514 13.968 47.8834 14.76 47.8834 15.816C47.8834 16.872 48.6514 17.664 49.7314 17.664C50.8114 17.664 51.5794 16.872 51.5794 15.816C51.5794 14.76 50.8114 13.968 49.7314 13.968Z" fill="white"/>
<path d="M31.6429 14.76C31.6429 18.312 28.3549 20.568 24.2029 20.568C20.0509 20.568 16.7629 18.312 16.7629 14.76C16.7629 12.048 18.9949 10.32 20.7229 9.96C19.2109 9.504 17.4349 7.824 17.4349 5.592C17.4349 2.52 20.2189 0 24.2029 0C28.2109 0 30.9229 2.568 30.9229 5.592C30.9229 7.824 29.1709 9.504 27.6829 9.96C29.4349 10.32 31.6429 12.048 31.6429 14.76ZM26.8429 5.76C26.8429 4.512 25.7629 3.552 24.2029 3.552C22.6909 3.552 21.5629 4.416 21.5629 5.664C21.5629 7.032 22.7389 7.992 24.2029 7.992C25.7149 7.992 26.8429 7.08 26.8429 5.76ZM27.4429 14.496C27.4429 13.032 26.0749 11.952 24.2029 11.952C22.3309 11.952 20.9629 13.032 20.9629 14.496C20.9629 15.912 22.2829 16.968 24.2029 16.968C26.1229 16.968 27.4429 15.912 27.4429 14.496Z" fill="white"/>
<path d="M3.51634 20.088L7.95634 13.464C7.83634 13.512 7.62034 13.56 7.40434 13.56C3.58834 13.56 0.444336 10.896 0.444336 6.93599C0.444336 2.75999 3.78034 0.071991 7.86034 0.071991C11.9403 0.071991 15.2763 2.73599 15.2763 6.91199C15.2763 8.80799 14.6523 10.272 13.5003 12.096L8.46034 20.088H3.51634ZM7.86034 10.008C9.80434 10.008 11.0283 8.63999 11.0283 6.88799C11.0283 5.13599 9.80434 3.76799 7.86034 3.76799C5.91634 3.76799 4.69234 5.13599 4.69234 6.88799C4.69234 8.63999 5.91634 10.008 7.86034 10.008Z" fill="white"/>
</svg>
