<svg width="32" height="16" viewBox="0 0 32 16" fill="none" xmlns="http://www.w3.org/2000/svg">
<rect width="32" height="16" rx="8" fill="#BCBCBC"/>
<path d="M8.6766 5.99503V4.72727H14.6496V5.99503H12.423V12H10.9032V5.99503H8.6766ZM16.8709 4.72727V12H15.3333V4.72727H16.8709ZM17.836 12V4.72727H20.7053C21.2569 4.72727 21.7269 4.83262 22.1151 5.04332C22.5034 5.25166 22.7993 5.54167 23.0029 5.91335C23.2089 6.28267 23.3119 6.70881 23.3119 7.19176C23.3119 7.67472 23.2077 8.10085 22.9994 8.47017C22.791 8.83949 22.4892 9.12713 22.0938 9.3331C21.7008 9.53906 21.225 9.64205 20.6663 9.64205H18.8374V8.4098H20.4177C20.7136 8.4098 20.9575 8.3589 21.1492 8.2571C21.3433 8.15294 21.4878 8.00971 21.5825 7.82741C21.6795 7.64276 21.7281 7.43087 21.7281 7.19176C21.7281 6.95028 21.6795 6.73958 21.5825 6.55966C21.4878 6.37737 21.3433 6.23651 21.1492 6.13707C20.9551 6.03527 20.7089 5.98438 20.4106 5.98438H19.3737V12H17.836Z" fill="white"/>
</svg>
