<svg width="170" height="72" viewBox="0 0 170 72" fill="none" xmlns="http://www.w3.org/2000/svg">
<path d="M169.392 37.3664L169.988 36.0914C169.996 36.074 170 36.0546 170 36.0351V35.6882C170 35.6544 169.988 35.6217 169.964 35.5982C169.942 35.5746 169.911 35.5644 169.88 35.5644C168.344 35.6626 166.557 35.8959 164.956 36.8753C162.815 38.1851 161.424 40.2 160.705 43.0376C160.697 43.0704 160.701 43.1062 160.718 43.1359C160.734 43.1656 160.761 43.186 160.792 43.1922C161.039 43.2464 161.278 43.2689 161.513 43.2689C162.074 43.2689 162.613 43.1379 163.19 42.9814C165.917 42.2384 168.003 40.3494 169.391 37.3664H169.392ZM13.4643 10.2211C13.4643 10.2211 13.4541 10.2221 13.449 10.2221C13.4223 10.2221 13.3956 10.2108 13.3741 10.1914C13.3495 10.1679 13.3351 10.1341 13.3351 10.0983C13.332 5.68065 16.5505 1.40321 20.5096 0.565115C20.5435 0.556928 20.5773 0.568184 20.603 0.591721C20.6296 0.615257 20.644 0.651073 20.644 0.687912C20.6245 3.18888 19.8553 5.45449 18.4203 7.24017C17.0942 8.89077 15.3331 9.94888 13.4623 10.2211H13.4643ZM130.668 67.8376C134.274 65.4911 138.731 66.45 141.756 70.2229C141.78 70.2516 141.789 70.2904 141.782 70.3283C141.775 70.3662 141.753 70.3979 141.721 70.4153C140.398 71.1306 138.961 71.4734 137.544 71.4734C134.875 71.4734 132.275 70.2587 130.638 68.0218C130.618 67.9941 130.609 67.9573 130.616 67.9225C130.622 67.8877 130.641 67.857 130.669 67.8386L130.668 67.8376ZM162.958 35.4488C162.944 35.4549 162.93 35.4569 162.917 35.4569C162.897 35.4569 162.879 35.4518 162.862 35.4416C162.833 35.4242 162.812 35.3925 162.806 35.3567C162.024 30.7999 164.437 26.2748 168.543 24.5976C168.575 24.5843 168.611 24.5884 168.641 24.6078C168.671 24.6272 168.69 24.662 168.694 24.6999C169.168 29.3785 166.81 33.7982 162.959 35.4498L162.958 35.4488ZM153.125 57.2739C153.094 57.2617 153.068 57.235 153.057 57.2013C153.045 57.1675 153.048 57.1296 153.063 57.0979C155.105 53.0118 159.653 51.1822 163.642 52.841C163.674 52.8543 163.698 52.8819 163.709 52.9177C163.72 52.9525 163.715 52.9914 163.697 53.0231C161.982 56.0081 158.907 57.7794 155.857 57.7794C154.931 57.7794 154.007 57.6167 153.125 57.2739ZM30.9252 65.5003C30.9488 65.5239 30.9632 65.5566 30.9632 65.5914C30.9632 65.6262 30.9509 65.6589 30.9283 65.6835C29.2298 67.4385 27.0288 68.3369 24.7579 68.3369C23.0635 68.3369 21.3301 67.8365 19.7363 66.8173C19.7055 66.7979 19.686 66.7641 19.6809 66.7262C19.6768 66.6884 19.6881 66.6505 19.7137 66.6229C23.3158 62.7108 28.3385 62.9953 30.9252 65.5003ZM7.12471 35.3372C7.11958 35.3741 7.10009 35.4058 7.07034 35.4242C7.05291 35.4355 7.0324 35.4416 7.01291 35.4416C7.0006 35.4416 6.98727 35.4395 6.97496 35.4344C4.48772 34.4582 2.7882 32.122 2.08972 30.4182C1.28458 28.4555 0.905078 25.7191 1.29483 24.6764C1.31842 24.6129 1.38406 24.5822 1.4415 24.6088C5.56159 26.4324 7.79241 30.6433 7.12573 35.3372H7.12471ZM8.94937 31.026C8.92886 31.026 8.90834 31.0199 8.8909 31.0076C8.86218 30.9881 8.8427 30.9575 8.83757 30.9216C8.18627 26.3996 10.4499 21.9144 14.3423 20.0131C14.3751 19.9978 14.4121 19.9988 14.4428 20.0183C14.4736 20.0367 14.4951 20.0704 14.5003 20.1093C15.2469 25.9934 12.2684 29.8287 8.98526 31.0199C8.97398 31.024 8.96168 31.026 8.94937 31.026ZM156.265 50.2683C156.257 50.2704 156.249 50.2714 156.242 50.2714C156.217 50.2714 156.194 50.2632 156.174 50.2469C152.781 47.4522 151.797 42.4543 153.78 38.094C153.796 38.0602 153.824 38.0357 153.858 38.0285C153.892 38.0203 153.927 38.0306 153.953 38.0541C157.152 40.9501 158.223 46.4013 156.341 50.207C156.326 50.2387 156.298 50.2612 156.266 50.2694L156.265 50.2683ZM160.597 16.1624C160.597 16.1624 160.592 16.1624 160.59 16.1624C160.559 16.1624 160.529 16.1481 160.507 16.1235C157.34 12.4642 157.853 6.72954 160.319 3.66882C160.341 3.64119 160.374 3.62584 160.409 3.62686C160.444 3.62891 160.475 3.64733 160.495 3.67803C163.064 7.55637 163.137 12.4365 160.681 16.1113C160.661 16.1409 160.631 16.1593 160.597 16.1614V16.1624ZM10.3217 41.4167C10.3042 41.4269 10.2848 41.4331 10.2663 41.4331C10.253 41.4331 10.2386 41.43 10.2263 41.4249C10.1945 41.4116 10.1699 41.384 10.1596 41.3492C8.69396 36.6 10.9843 31.6543 14.0459 29.6169C14.0756 29.5975 14.1115 29.5934 14.1443 29.6067C14.1772 29.62 14.2018 29.6486 14.2131 29.6845C15.6049 34.4029 14.0418 39.1184 10.3238 41.4177L10.3217 41.4167ZM16.0131 38.0756C16.0408 38.0541 16.0757 38.047 16.1085 38.0562C16.1413 38.0654 16.169 38.091 16.1823 38.1247C18.0747 42.6825 17.0778 47.5627 13.7003 50.2673C13.6808 50.2827 13.6572 50.2909 13.6336 50.2909C13.6243 50.2909 13.6161 50.2898 13.6069 50.2878C13.5751 50.2796 13.5474 50.2561 13.532 50.2233C11.5053 45.8589 13.212 40.3177 16.0121 38.0756H16.0131ZM155.523 20.1083C155.532 20.0735 155.555 20.0438 155.585 20.0295C155.616 20.0142 155.651 20.0152 155.681 20.0316C159.542 22.0884 161.697 26.4784 161.045 30.9554C161.04 30.9922 161.019 31.024 160.991 31.0424C160.973 31.0536 160.954 31.0598 160.933 31.0598C160.92 31.0598 160.906 31.0577 160.894 31.0516C156.044 29.0817 154.657 23.431 155.523 20.1083ZM6.29085 52.7765C10.5545 51.2712 14.7023 52.9627 16.8593 57.0867C16.8757 57.1184 16.8788 57.1563 16.8675 57.191C16.8562 57.2258 16.8316 57.2524 16.7998 57.2647C15.9321 57.6055 15.0151 57.7672 14.092 57.7672C10.9812 57.7672 7.80166 55.9365 6.22829 52.9576C6.21085 52.9249 6.2088 52.886 6.22008 52.8512C6.23239 52.8164 6.25803 52.7898 6.29085 52.7775V52.7765ZM131.195 64.9733C131.195 64.9733 131.191 64.9733 131.189 64.9733C131.158 64.9733 131.128 64.96 131.108 64.9355C131.085 64.9099 131.074 64.8741 131.077 64.8382C131.372 61.3467 133.678 56.9997 139.202 56.2353C139.237 56.2312 139.271 56.2435 139.296 56.2701C139.32 56.2967 139.333 56.3335 139.33 56.3714C138.954 60.3244 135.596 64.7236 131.197 64.9733H131.195ZM27.8462 61.5821C27.8339 61.5872 27.8206 61.5892 27.8083 61.5892C27.7877 61.5892 27.7683 61.5831 27.7498 61.5718C23.8605 59.0279 22.6143 53.4703 23.8902 49.8764C23.9025 49.8416 23.9282 49.815 23.96 49.8038C23.9918 49.7915 24.0266 49.7966 24.0554 49.816C27.8031 52.361 29.3539 57.059 27.9149 61.5063C27.9036 61.5411 27.878 61.5688 27.8462 61.5811V61.5821ZM6.96573 25.7437C6.94829 25.7744 6.91855 25.7948 6.88573 25.8C6.8806 25.8 6.87547 25.801 6.87035 25.801C6.84265 25.801 6.81496 25.7897 6.79445 25.7693C3.29796 22.3115 3.14922 16.9821 4.80875 13.5049C4.82516 13.4711 4.85388 13.4476 4.88773 13.4404C4.92157 13.4332 4.95644 13.4435 4.98311 13.468C8.79345 17.0711 8.84885 22.4814 6.96573 25.7427V25.7437ZM0.022995 35.7291C0.0435083 35.6995 0.0742921 35.6811 0.108139 35.679C4.44055 35.4365 8.24679 38.5422 9.15245 43.0663C9.15963 43.1021 9.15246 43.1389 9.13194 43.1676C9.11143 43.1962 9.08064 43.2147 9.04782 43.2157C8.89705 43.2249 8.74629 43.229 8.59756 43.229C4.31644 43.229 0.892776 39.5451 0.00352478 35.8335C-0.00468053 35.7977 0.00145937 35.7588 0.0219727 35.7291H0.022995ZM39.2516 67.8672C39.2803 67.8867 39.2988 67.9174 39.3039 67.9542C39.309 67.99 39.2988 68.0269 39.2772 68.0535C37.3582 70.4818 34.8023 71.5 32.3909 71.5C30.8822 71.5 29.4298 71.1019 28.2257 70.401C28.1949 70.3836 28.1744 70.3518 28.1672 70.315C28.1611 70.2782 28.1703 70.2403 28.1918 70.2116C31.076 66.4704 35.7274 65.484 39.2516 67.8672ZM150.246 44.1101C150.282 44.1111 150.314 44.1305 150.335 44.1633C152.886 48.1603 152.902 53.2984 150.373 56.6569C150.351 56.6855 150.314 56.7019 150.286 56.7019C150.253 56.7019 150.221 56.6855 150.2 56.6579C147.388 53.0446 147.369 48.0201 150.153 44.1571C150.176 44.1264 150.21 44.108 150.246 44.1101ZM142.171 61.5452C142.153 61.5565 142.134 61.5616 142.115 61.5616C142.103 61.5616 142.09 61.5596 142.077 61.5544C142.047 61.5422 142.022 61.5156 142.01 61.4818C140.49 57.1143 142.149 52.2004 145.956 49.7987C145.987 49.7792 146.024 49.7772 146.057 49.7915C146.09 49.8068 146.113 49.8365 146.123 49.8744C146.695 52.2505 146.578 54.6614 145.783 56.8482C145.041 58.8887 143.758 60.5567 142.172 61.5452H142.171ZM138.904 65.531C138.906 65.4952 138.921 65.4625 138.947 65.44C142.243 62.634 147.252 63.1723 150.11 66.6403C150.133 66.6679 150.143 66.7037 150.138 66.7406C150.133 66.7764 150.114 66.8091 150.087 66.8286C148.594 67.855 146.894 68.3564 145.206 68.3564C142.907 68.3564 140.631 67.4262 138.938 65.6272C138.914 65.6027 138.902 65.5679 138.904 65.5321V65.531ZM156.496 10.217C156.496 10.217 156.486 10.217 156.481 10.216C152.325 9.60811 149.169 5.3931 149.296 0.620373C149.297 0.583534 149.313 0.547718 149.341 0.525205C149.368 0.502693 149.404 0.494506 149.436 0.503716C152.816 1.41139 156.344 4.72692 156.609 10.086C156.611 10.1228 156.598 10.1587 156.573 10.1832C156.553 10.2047 156.525 10.216 156.496 10.216V10.217ZM159.623 41.4024C159.611 41.4075 159.598 41.4095 159.585 41.4095C159.566 41.4095 159.547 41.4044 159.53 41.3942C155.927 39.1808 154.358 34.3497 155.712 29.6466C155.723 29.6097 155.749 29.5801 155.782 29.5668C155.816 29.5535 155.853 29.5596 155.883 29.5811C159.489 32.2171 161.126 37.2692 159.69 41.3318C159.678 41.3655 159.653 41.3911 159.622 41.4034L159.623 41.4024ZM19.5753 56.6947C19.5753 56.6947 19.5711 56.6947 19.5691 56.6947C19.5363 56.6927 19.5055 56.6753 19.485 56.6466C16.968 53.0691 17.0193 47.9332 19.6111 44.1571C19.6327 44.1264 19.6655 44.108 19.7004 44.108C19.7353 44.108 19.7681 44.1254 19.7896 44.1561C22.5425 48.0334 22.484 53.4079 19.6552 56.6579C19.6337 56.6825 19.604 56.6968 19.5732 56.6968L19.5753 56.6947ZM163.094 25.7242C163.074 25.7427 163.048 25.7529 163.022 25.7529C163.016 25.7529 163.01 25.7529 163.005 25.7508C162.973 25.7447 162.944 25.7242 162.927 25.6946C161.914 23.9253 161.522 21.7497 161.824 19.5711C162.149 17.2338 163.225 15.1084 164.936 13.423C164.963 13.3974 164.998 13.3862 165.034 13.3933C165.069 13.4005 165.098 13.4261 165.114 13.4609C167.001 17.6912 166.133 22.9623 163.095 25.7232L163.094 25.7242ZM146.375 62.2472C146.369 62.2124 146.377 62.1776 146.396 62.15C147.548 60.5168 149.251 59.3891 151.191 58.9747C153.283 58.5285 155.456 58.9358 157.476 60.1525C157.506 60.1709 157.527 60.2027 157.533 60.2395C157.539 60.2763 157.529 60.3142 157.506 60.3428C155.79 62.4509 153.203 63.5888 150.682 63.5888C149.173 63.5888 147.688 63.1805 146.427 62.3291C146.399 62.3107 146.381 62.281 146.375 62.2462V62.2472ZM9.36168 16.1849H9.35861C9.32477 16.1849 9.29296 16.1665 9.27245 16.1368C6.77393 12.6228 6.86316 7.24426 9.48065 3.62686C9.50219 3.59718 9.53604 3.57877 9.57091 3.57979C9.60578 3.57979 9.6386 3.59821 9.66014 3.62891C12.3351 7.53386 12.2499 12.5624 9.44783 16.1409C9.42629 16.1686 9.3945 16.1839 9.36168 16.1839V16.1849ZM158.109 50.4065C158.079 50.3973 158.054 50.3748 158.039 50.3451C158.024 50.3144 158.021 50.2786 158.033 50.2469C159.387 46.0462 164.231 43.2914 168.002 44.5787C168.033 44.589 168.057 44.6135 168.071 44.6453C168.084 44.677 168.084 44.7138 168.071 44.7466C166.534 48.5932 162.935 50.65 159.853 50.65C159.245 50.65 158.657 50.5702 158.108 50.4075L158.109 50.4065ZM19.0399 10.8862C19.0645 10.9098 19.0788 10.9446 19.0778 10.9804C19.0511 13.2398 17.6665 15.8872 15.5516 17.724C14.2182 18.8824 12.8243 19.5056 11.614 19.5056C11.3587 19.5056 11.1115 19.4779 10.8745 19.4217C10.8171 19.4084 10.7781 19.348 10.7863 19.2835C11.3525 14.9293 14.6326 11.5422 18.9475 10.8566C18.9814 10.8514 19.0132 10.8617 19.0388 10.8862H19.0399ZM38.6229 65.0306C38.6229 65.0306 38.6136 65.0306 38.6085 65.0306C34.4638 64.4525 31.355 61.1502 30.4975 56.4133C30.4904 56.3755 30.5006 56.3356 30.5242 56.3069C30.5478 56.2782 30.5837 56.2629 30.6186 56.266C36.0331 56.7664 38.8116 61.6087 38.7367 64.9119C38.7367 64.9467 38.7213 64.9795 38.6977 65.003C38.6772 65.0224 38.6506 65.0327 38.6239 65.0327L38.6229 65.0306ZM159.148 19.4452C159.128 19.4728 159.098 19.4902 159.065 19.4923C158.98 19.4964 158.894 19.4994 158.808 19.4994C156.962 19.4994 154.919 18.4731 153.29 16.714C151.698 14.9958 150.784 12.8489 150.846 10.9712C150.847 10.9364 150.862 10.9036 150.886 10.8811C150.91 10.8586 150.942 10.8484 150.974 10.8535C155.2 11.5023 158.417 14.8362 159.17 19.348C159.176 19.3828 159.168 19.4196 159.147 19.4472L159.148 19.4452ZM12.4417 60.1443C16.9034 57.452 21.3917 59.1231 23.5189 62.1654C23.5384 62.193 23.5466 62.2288 23.5405 62.2636C23.5343 62.2984 23.5148 62.3281 23.4882 62.3465C22.203 63.1907 20.7066 63.5949 19.1968 63.5949C16.6572 63.5949 14.0798 62.4498 12.411 60.3326C12.3884 60.305 12.3792 60.2671 12.3853 60.2303C12.3915 60.1934 12.412 60.1617 12.4417 60.1433V60.1443ZM1.84869 44.5358C4.17593 44.0886 6.37187 44.4478 8.1996 45.5734C9.88169 46.61 11.1874 48.279 11.8756 50.2735C11.8869 50.3072 11.8848 50.3441 11.8694 50.3758C11.854 50.4075 11.8264 50.43 11.7946 50.4372C11.2304 50.5733 10.6602 50.6378 10.0909 50.6378C6.72675 50.6378 3.40462 48.3496 1.76663 44.7108C1.75022 44.676 1.75125 44.635 1.76663 44.6002C1.78304 44.5654 1.81278 44.5409 1.84766 44.5347L1.84869 44.5358Z" fill="#7563DD"/>
<path d="M100.142 62.3L113.092 42.98C112.742 43.12 112.112 43.26 111.482 43.26C100.352 43.26 91.1824 35.49 91.1824 23.94C91.1824 11.76 100.912 3.92 112.812 3.92C124.712 3.92 134.442 11.69 134.442 23.87C134.442 29.4 132.622 33.67 129.262 38.99L114.562 62.3H100.142ZM112.812 32.9C118.482 32.9 122.052 28.91 122.052 23.8C122.052 18.69 118.482 14.7 112.812 14.7C107.142 14.7 103.572 18.69 103.572 23.8C103.572 28.91 107.142 32.9 112.812 32.9Z" fill="url(#paint0_linear_239_771)"/>
<path d="M85.9375 48.86C89.9275 48.86 92.8675 51.87 92.8675 55.86C92.8675 59.85 89.9275 62.86 85.9375 62.86C81.8775 62.86 78.9375 59.85 78.9375 55.86C78.9375 51.87 81.8775 48.86 85.9375 48.86Z" fill="url(#paint1_linear_239_771)"/>
<path d="M59.6212 62.3V50.82H34.0012V40.32L56.0512 5.25H71.6612V40.32H79.1512V50.82H71.6612V62.3H59.6212ZM46.1812 40.32H59.6212V18.34L46.1812 40.32Z" fill="url(#paint2_linear_239_771)"/>
<defs>
<linearGradient id="paint0_linear_239_771" x1="31.9998" y1="35" x2="137" y2="35" gradientUnits="userSpaceOnUse">
<stop stop-color="#FFF9A7"/>
<stop offset="1" stop-color="#FFC00B"/>
</linearGradient>
<linearGradient id="paint1_linear_239_771" x1="32" y1="35" x2="137" y2="35" gradientUnits="userSpaceOnUse">
<stop stop-color="#FFF9A7"/>
<stop offset="1" stop-color="#FFC00B"/>
</linearGradient>
<linearGradient id="paint2_linear_239_771" x1="31.9999" y1="35" x2="137" y2="35" gradientUnits="userSpaceOnUse">
<stop stop-color="#FFF9A7"/>
<stop offset="1" stop-color="#FFC00B"/>
</linearGradient>
</defs>
</svg>
