<svg width="20" height="19" viewBox="0 0 20 19" fill="none" xmlns="http://www.w3.org/2000/svg">
<path d="M9.12885 1.79558C9.51136 1.11693 10.4886 1.11693 10.8712 1.79557L12.9493 5.4826C13.092 5.73578 13.3378 5.91435 13.6227 5.97183L17.7714 6.80893C18.5351 6.963 18.8371 7.89245 18.3098 8.46595L15.4455 11.5818C15.2488 11.7957 15.1549 12.0846 15.1883 12.3733L15.6742 16.5777C15.7636 17.3516 14.973 17.926 14.2646 17.6018L10.4162 15.8405C10.1519 15.7195 9.8481 15.7195 9.58384 15.8405L5.73539 17.6018C5.02703 17.926 4.2364 17.3516 4.32584 16.5777L4.81175 12.3733C4.84512 12.0846 4.75123 11.7957 4.55455 11.5818L1.69016 8.46595C1.16294 7.89245 1.46493 6.963 2.22856 6.80893L6.37732 5.97183C6.6622 5.91435 6.90799 5.73578 7.05069 5.4826L9.12885 1.79558Z" fill="url(#paint0_linear_239_744)" stroke="url(#paint1_linear_239_744)"/>
<defs>
<linearGradient id="paint0_linear_239_744" x1="10" y1="0.25" x2="10" y2="20.25" gradientUnits="userSpaceOnUse">
<stop stop-color="#FFF069"/>
<stop offset="1" stop-color="#FFD735"/>
</linearGradient>
<linearGradient id="paint1_linear_239_744" x1="10" y1="0.25" x2="10" y2="20.25" gradientUnits="userSpaceOnUse">
<stop stop-color="#FFFFFC"/>
<stop offset="1" stop-color="#FFD52E"/>
</linearGradient>
</defs>
</svg>
